<?xml version="1.0" encoding="iso-8859-1"?>
<!-- Generator: Adobe Illustrator 19.0.0, SVG Export Plug-In . SVG Version: 6.00 Build 0)  -->
<svg xmlns="http://www.w3.org/2000/svg" xmlns:xlink="http://www.w3.org/1999/xlink" version="1.1" id="Capa_1" x="0px" y="0px" viewBox="0 0 455 455" style="enable-background:new 0 0 455 455;" xml:space="preserve" width="512" height="512">
<g>
	<path style="fill:#E44670;" d="M333.63,20c-3.44,0-6.86,0.14-10.23,0.43l-95.81,414.52C232.8,432.1,455,309.38,455,141.37   C455,74.34,400.66,20,333.63,20z"/>
	<path style="fill:#FF6288;" d="M323.4,20.43c51.29,5.19,91.6,57.35,91.6,120.94c0,167.84-182.76,290.48-187.41,293.58   c-0.06,0.03-0.09,0.05-0.09,0.05S0,311.37,0,141.37C0,74.34,54.34,20,121.37,20c45.7,0,85.44,25.3,106.13,62.63   C246.63,48.11,282.05,23.88,323.4,20.43z"/>
	<circle style="fill:#E44670;" cx="128.621" cy="277.5" r="7.5"/>
	<circle style="fill:#E44670;" cx="365" cy="148.87" r="7.5"/>
	<circle style="fill:#E44670;" cx="98.621" cy="247.5" r="7.5"/>
</g>















</svg>
